<svg width="18" height="22" viewBox="0 0 18 22" fill="none" xmlns="http://www.w3.org/2000/svg">
<path fill-rule="evenodd" clip-rule="evenodd" d="M13.3071 2.38654C11.6437 1.98878 9.9804 1.19327 8.73289 0C7.48538 1.19327 5.82204 1.98878 4.15869 2.38654C4.57453 5.96635 5.82204 8.35289 8.73289 10.3417C11.6437 8.35289 13.3071 5.96635 13.3071 2.38654Z" fill="#FFB627"/>
<path fill-rule="evenodd" clip-rule="evenodd" d="M11.6437 17.1969L0.000244141 4.07092V10.435L9.14865 20.3789L11.6437 17.1969Z" fill="#FBFBFB"/>
<path fill-rule="evenodd" clip-rule="evenodd" d="M12.8916 16.0038L17.8816 10.4352V4.46887L9.98071 13.2195L12.8916 16.0038Z" fill="#FBFBFB"/>
<path fill-rule="evenodd" clip-rule="evenodd" d="M13.3074 17.9924V21.5722L17.8816 16.4013V12.8215L13.3074 17.9924Z" fill="#FBFBFB"/>
<path fill-rule="evenodd" clip-rule="evenodd" d="M4.57445 17.9924L0.000244141 12.8215V16.4013L4.57445 21.5722V17.9924Z" fill="#FBFBFB"/>
</svg>
